<?xml version="1.0" standalone="no"?>
<!DOCTYPE svg PUBLIC "-//W3C//DTD SVG 20010904//EN"
 "http://www.w3.org/TR/2001/REC-SVG-20010904/DTD/svg10.dtd">
<svg version="1.0" xmlns="http://www.w3.org/2000/svg"
 width="260.000000pt" height="260.000000pt" viewBox="0 0 260.000000 260.000000"
 preserveAspectRatio="xMidYMid meet">
<metadata>
Created by potrace 1.11, written by Peter Selinger 2001-2013
</metadata>
<g transform="translate(0.000000,260.000000) scale(0.100000,-0.100000)"
fill="#000000" stroke="none">
<path d="M1210 1972 c-58 -19 -127 -41 -155 -50 -27 -9 -77 -32 -111 -53 -33
-20 -71 -40 -84 -44 -59 -19 -164 -93 -255 -181 -111 -107 -109 -105 -141 -90
-22 11 -60 14 -154 11 -69 -2 -146 -4 -172 -4 -34 -1 -48 -5 -48 -15 0 -7 -7
-19 -15 -26 -8 -7 -12 -16 -9 -21 3 -5 1 -9 -3 -9 -31 0 -54 -303 -33 -413 8
-42 12 -84 22 -232 1 -11 6 -23 10 -26 5 -3 11 -23 14 -45 3 -21 12 -49 20
-62 9 -13 13 -26 11 -29 -3 -3 -12 8 -21 24 -8 15 -15 22 -16 15 0 -23 48
-104 55 -92 8 13 45 -16 45 -35 0 -18 292 -34 348 -19 30 8 52 62 52 127 l0
50 43 -6 c23 -3 76 -15 117 -27 58 -16 129 -24 305 -33 276 -14 349 -14 705
-5 297 9 412 25 452 66 26 25 42 116 26 146 -13 25 -32 38 -78 52 l-35 10 35
18 c74 38 98 64 105 109 8 50 -17 122 -46 138 -18 9 -18 11 3 40 18 23 23 44
23 91 0 58 -2 62 -40 96 l-40 35 45 -6 c25 -3 88 -10 141 -17 156 -19 240 9
247 81 5 49 -32 76 -141 104 -54 14 -119 30 -145 35 -26 5 -78 16 -117 25 -38
8 -131 20 -205 25 -74 6 -146 13 -160 16 -13 3 -88 6 -165 6 l-140 0 76 13
c73 12 166 50 192 77 56 58 71 106 44 142 -12 16 -36 18 -258 20 l-244 2 -105
-34z m584 8 c-11 -11 -61 -15 -134 -12 -33 2 -41 5 -30 12 21 13 177 13 164 0z
m-167 -39 c12 -6 44 -11 72 -11 39 0 51 -4 51 -15 0 -9 -8 -19 -17 -22 -10 -4
-24 -13 -32 -21 -7 -7 -20 -11 -27 -8 -8 3 -14 0 -14 -7 0 -8 -4 -6 -10 3 -6
9 -10 11 -10 3 0 -7 -7 -10 -17 -6 -9 4 -14 2 -11 -3 11 -17 -173 -7 -216 11
-34 15 -41 15 -50 3 -6 -8 -18 -13 -26 -10 -12 4 -13 2 -2 -9 14 -15 16 -43 2
-34 -5 3 -10 0 -10 -9 0 -9 -15 -17 -42 -21 -69 -11 -120 -31 -177 -69 l-53
-36 -154 0 c-119 0 -154 3 -154 13 0 13 102 77 123 77 7 0 21 7 31 15 10 8 23
12 27 9 5 -3 9 0 9 6 0 6 4 9 9 5 5 -3 12 -1 16 5 4 6 11 7 17 4 6 -4 13 -2
17 4 4 7 18 13 31 14 14 2 31 10 37 20 7 9 32 20 55 24 54 10 44 8 106 23 28
7 55 17 58 22 3 5 14 9 25 9 10 0 19 5 19 10 0 16 37 12 44 -5 7 -20 40 -19
60 1 9 8 21 12 27 8 7 -4 10 -3 6 2 -8 13 155 9 180 -5z m237 -251 c7 -7 -26
-10 -107 -10 -64 0 -117 2 -117 5 0 25 200 29 224 5z m184 -12 c6 -6 12 -7 12
-4 0 4 6 4 12 -1 7 -4 20 -8 28 -8 8 -1 24 -2 36 -3 21 -2 64 -36 64 -51 0
-12 -36 -51 -47 -51 -6 0 -16 -7 -23 -15 -10 -12 -15 -13 -20 -4 -6 8 -13 8
-28 0 -30 -16 -122 6 -122 30 0 9 -6 16 -12 15 -7 0 -14 3 -15 7 -1 4 -12 17
-25 27 l-23 19 34 31 c30 28 38 31 75 25 22 -4 47 -12 54 -17z m-180 -172 c-3
-144 -5 -161 -20 -164 -17 -3 -18 9 -18 142 l0 146 -535 0 -535 0 0 -395 0
-395 530 0 c493 0 530 1 539 18 9 15 10 15 11 0 0 -9 3 -24 7 -34 6 -16 -12
-16 -273 -11 -153 4 -410 7 -571 7 l-292 0 4 148 c2 81 5 270 7 419 l3 273
380 2 c209 2 467 3 573 4 l192 0 -2 -160z m-1163 6 c-3 -97 -10 -161 -19 -183
-18 -43 -91 -119 -105 -110 -7 5 -9 44 -6 111 5 129 13 182 29 195 7 6 18 24
24 40 9 27 11 27 11 7 1 -21 3 -22 16 -8 17 16 21 41 5 31 -5 -3 0 10 13 29
12 19 25 35 30 36 4 0 5 -67 2 -148z m1575 116 c0 -10 2 -10 9 0 13 22 171
-21 209 -56 32 -30 28 -42 -19 -58 -33 -11 -118 -11 -111 0 3 5 -5 7 -16 4
-12 -4 -25 -2 -28 3 -3 5 -18 9 -33 9 -43 0 -58 26 -52 93 1 19 41 24 41 5z
m-470 -153 c0 -145 0 -146 -25 -155 -63 -24 -87 -101 -47 -150 18 -22 17 -23
-10 -50 -50 -50 -25 -135 46 -161 34 -12 36 -16 36 -56 l0 -43 -520 0 -520 0
0 380 0 380 520 0 520 0 0 -145z m-1375 5 c-3 -5 -12 -7 -19 -4 -23 9 -29 -15
-11 -42 13 -21 16 -42 12 -102 -2 -43 -1 -147 4 -232 8 -152 16 -193 63 -315
8 -22 15 -47 15 -55 1 -24 -35 -64 -48 -55 -9 5 -7 11 8 22 12 8 21 25 21 39
0 25 -40 74 -60 74 -18 0 -11 -22 10 -27 28 -7 36 -42 15 -62 -17 -15 -17 -15
-12 2 4 11 1 17 -9 17 -11 0 -15 6 -11 20 3 11 1 20 -3 20 -5 0 -12 17 -16 38
-4 20 -10 42 -14 47 -4 6 -16 65 -25 133 -13 94 -16 154 -11 250 9 161 9 162
19 162 5 0 7 6 4 13 -9 24 22 67 49 67 14 0 23 -4 19 -10z m36 -50 c1 32 18
-26 18 -68 1 -24 10 -61 21 -84 14 -30 17 -45 9 -54 -6 -7 -7 -18 -4 -25 26
-41 26 -190 1 -224 -6 -9 -23 -18 -38 -20 -25 -5 -27 -2 -35 42 -14 82 -10
354 6 443 1 3 6 -2 11 -10 9 -13 10 -13 11 0z m1644 -66 c19 -18 24 -28 16
-33 -6 -4 -9 -15 -5 -24 4 -11 1 -17 -7 -17 -11 0 -11 -2 1 -10 12 -7 11 -10
-5 -16 -11 -4 -24 -14 -28 -21 -5 -7 -12 -11 -18 -8 -5 4 -9 2 -9 -3 0 -14
-63 -30 -98 -24 -23 3 -34 11 -38 27 -3 13 -14 31 -25 41 -10 9 -19 20 -19 24
0 15 78 30 103 21 19 -8 27 -6 31 5 3 8 10 14 16 14 6 0 8 -4 5 -10 -3 -5 -1
-10 6 -10 7 0 9 9 6 22 -7 24 8 48 28 48 7 0 25 -12 40 -26z m-220 -107 c14
-20 13 -23 -27 -44 -59 -30 -96 -30 -104 1 -8 34 11 64 43 68 45 5 73 -3 88
-25z m265 -138 c0 -53 -86 -99 -190 -102 l-64 -2 -2 38 c-2 21 -8 45 -15 53
-13 16 -8 17 113 16 58 -1 78 2 82 14 3 8 16 18 28 23 25 10 48 -9 48 -40z
m-1462 -151 c-2 -65 -7 -121 -11 -124 -17 -17 -62 70 -72 137 -7 45 5 69 52
114 36 32 37 28 31 -127z m1162 129 c14 -7 26 -22 28 -34 3 -17 -4 -22 -35
-29 -56 -11 -97 -11 -105 1 -12 16 -9 50 4 63 16 16 76 15 108 -1z m-23 -179
c-3 -8 -6 -5 -6 6 -1 11 2 17 5 13 3 -3 4 -12 1 -19z m322 -10 c24 -15 28 -50
7 -71 -15 -15 -137 -19 -151 -5 -4 3 1 18 10 32 10 14 14 33 11 42 -3 9 -4 19
-1 23 6 11 98 -5 124 -21z m-155 9 c10 -7 16 -22 14 -33 -3 -16 -12 -19 -63
-19 -50 0 -60 3 -63 18 -7 35 6 47 51 47 24 0 51 -6 61 -13z"/>
<path d="M625 1514 c-9 -14 -15 -27 -13 -30 2 -2 12 10 22 26 21 37 15 40 -9
4z"/>
<path d="M860 1545 c0 -8 7 -15 15 -15 13 0 15 -20 15 -120 0 -100 -2 -120
-15 -120 -8 0 -15 -7 -15 -15 0 -12 13 -15 60 -15 59 0 83 16 40 27 -17 4 -20
14 -20 55 0 41 3 49 17 46 10 -2 30 -23 46 -47 32 -47 80 -81 115 -81 30 0 28
12 -7 38 -17 12 -42 37 -56 57 l-27 35 26 31 c29 34 31 45 16 84 -13 35 -65
55 -145 55 -51 0 -65 -3 -65 -15z m144 -28 c40 -30 10 -102 -39 -95 -17 3 -21
12 -23 56 -3 49 -2 52 21 52 13 0 31 -6 41 -13z"/>
<path d="M1232 1540 c-44 -27 -76 -98 -67 -149 27 -145 203 -179 267 -51 67
132 -77 275 -200 200z m126 -33 c48 -51 51 -144 7 -191 -31 -34 -67 -33 -107
3 -27 24 -32 36 -35 87 -6 82 20 124 75 124 27 0 45 -7 60 -23z"/>
<path d="M1470 1545 c0 -7 8 -15 18 -17 10 -3 35 -35 55 -72 29 -52 37 -78 37
-117 0 -35 -4 -51 -15 -55 -32 -13 -13 -24 40 -24 53 0 72 11 40 24 -11 4 -15
20 -15 58 0 44 7 65 38 117 20 35 45 66 55 69 9 2 17 10 17 17 0 8 -17 11 -52
10 -67 -3 -67 -3 -41 -18 l22 -12 -25 -43 c-14 -23 -28 -42 -33 -42 -4 0 -17
20 -28 44 -18 37 -20 45 -7 50 32 12 10 24 -46 23 -40 0 -60 -4 -60 -12z"/>
<path d="M1014 1208 c-3 -4 0 -8 5 -8 7 0 11 -23 11 -55 0 -47 3 -57 25 -71
53 -35 95 3 95 87 0 33 3 40 18 37 13 -2 18 -15 20 -61 2 -35 -1 -57 -8 -57
-5 0 -10 -4 -10 -10 0 -18 96 -12 119 8 33 27 37 74 9 105 -20 22 -32 26 -83
27 -108 3 -100 8 -97 -59 3 -48 1 -59 -13 -65 -10 -3 -24 -1 -31 5 -18 15 -19
106 -1 112 6 2 -3 6 -21 9 -18 2 -35 1 -38 -4z m250 -21 c22 -16 19 -85 -5
-100 -31 -20 -49 -1 -49 51 0 64 15 78 54 49z"/>
<path d="M1324 1208 c-3 -4 0 -8 5 -8 7 0 11 -24 11 -60 0 -33 -4 -60 -10 -60
-5 0 -10 -4 -10 -10 0 -6 26 -10 59 -10 50 0 59 3 64 20 6 24 -11 38 -19 16
-3 -9 -17 -16 -30 -16 -23 0 -24 3 -24 59 0 39 4 61 13 64 6 2 -3 6 -21 9 -18
2 -35 1 -38 -4z"/>
<path d="M1475 1210 c-22 -4 -34 -8 -26 -9 10 -1 12 -17 9 -71 l-4 -70 52 0
c45 0 52 3 57 22 8 29 -1 37 -17 15 -7 -9 -23 -17 -35 -17 -16 0 -21 6 -21 25
0 27 18 33 38 13 9 -9 12 -6 12 15 0 24 -3 27 -25 21 -21 -5 -25 -3 -25 15 0
16 6 21 25 21 14 0 25 -5 25 -11 0 -5 4 -8 9 -5 15 10 0 46 -18 45 -9 -1 -34
-5 -56 -9z"/>
<path d="M868 1198 c14 -14 16 -118 2 -118 -5 0 -10 -4 -10 -10 0 -18 96 -12
119 8 32 26 37 72 11 105 -19 24 -28 27 -78 27 -43 0 -53 -3 -44 -12z m87 -12
c36 -26 17 -106 -26 -106 -17 0 -19 8 -19 60 0 64 9 73 45 46z"/>
<path d="M1571 1198 c39 -32 67 -118 39 -118 -5 0 -10 -4 -10 -10 0 -5 14 -10
30 -10 27 0 30 2 24 25 -9 35 1 67 30 98 l25 27 -29 0 c-19 0 -28 -4 -25 -12
3 -7 0 -20 -5 -28 -9 -13 -11 -13 -20 0 -5 8 -8 21 -5 28 3 8 -7 12 -32 12
-31 0 -34 -2 -22 -12z"/>
<path d="M952 1012 c-21 -7 -13 -42 11 -51 17 -6 10 -8 -28 -8 -27 0 -42 2
-32 4 9 2 17 8 17 13 0 5 -8 11 -17 13 -14 4 -12 5 5 6 36 2 25 21 -13 21 -35
0 -35 0 -35 -45 0 -45 0 -45 35 -45 21 0 35 5 35 12 0 9 3 9 12 0 27 -27 83 2
59 31 -12 15 -5 27 16 27 8 0 13 -13 13 -36 0 -44 23 -42 28 2 2 16 9 32 15
36 6 4 9 9 7 11 -7 6 -114 14 -128 9z"/>
<path d="M1343 1013 c-21 -8 -15 -43 10 -53 l22 -10 -22 3 c-26 2 -31 -14 -9
-28 11 -7 22 -6 35 2 14 9 21 9 23 1 3 -7 11 -6 26 3 19 12 24 12 32 -1 17
-27 23 -1 10 40 -16 48 -36 51 -54 9 -11 -25 -15 -28 -25 -15 -9 11 -9 16 0
22 9 5 7 11 -6 21 -20 14 -23 14 -42 6z"/>
<path d="M1643 1012 c-19 -12 -14 -80 7 -87 33 -11 51 5 47 42 -5 43 -27 62
-54 45z"/>
<path d="M1085 974 c-23 -56 -21 -63 16 -41 17 10 23 10 26 0 3 -7 11 -13 18
-13 11 0 11 8 -2 45 -18 54 -38 57 -58 9z"/>
<path d="M1140 1000 c0 -5 7 -10 15 -10 11 0 15 -11 15 -36 0 -45 24 -42 28 4
4 42 20 41 24 0 3 -29 7 -33 36 -36 24 -2 32 1 32 12 0 10 -9 16 -22 17 -17 1
-19 2 -5 6 9 2 17 8 17 13 0 5 -8 11 -17 13 -14 4 -12 5 5 6 12 0 22 6 22 11
0 6 -32 10 -75 10 -43 0 -75 -4 -75 -10z"/>
<path d="M1490 965 c0 -43 1 -45 30 -45 20 0 30 5 30 15 0 8 -7 15 -15 15 -10
0 -15 10 -15 30 0 20 -5 30 -15 30 -11 0 -15 -12 -15 -45z"/>
<path d="M1560 965 c0 -43 1 -45 30 -45 36 0 43 29 8 31 -17 1 -19 2 -5 6 9 2
17 8 17 13 0 5 -8 11 -17 13 -14 4 -12 5 5 6 33 2 27 21 -8 21 -29 0 -30 -2
-30 -45z"/>
</g>
</svg>
